# xmcd
#
# Track frame offsets: 
#        150
#        14589
#        38849
#        56536
#        75024
#        92546
#        109513
#        124141
#        144222
#        162426
#        177612
#        196338
#
# Disc length: 2654 seconds
#
# Revision: 2
# Processed by: cddbd v1.5.2PL0 Copyright (c) Steve Scherf et al.
# Submitted via: ExactAudioCopy v0.99pb4
#
DISCID=910a5c0c
DTITLE=Gouldman, Graham - And Another Thing...
DYEAR=2000
DGENRE=Pop/Rock
TTITLE0=You Stole My Love
TTITLE1=Walking With Angels
TTITLE2=Dancing Days
TTITLE3=Just Another Day
TTITLE4=Sometimes
TTITLE5=There Was A Day
TTITLE6=Heart Full Of Soul
TTITLE7=Ready To Go Home
TTITLE8=Single Tonight
TTITLE9=Walkin' Away
TTITLE10=Can Anybody See You?
TTITLE11=About 10cc (Hidden Track)
EXTD=YEAR: 2000
EXTT0=
EXTT1=
EXTT2=
EXTT3=
EXTT4=
EXTT5=
EXTT6=
EXTT7=
EXTT8=
EXTT9=
EXTT10=
EXTT11=
PLAYORDER=
